# xmcd
#
# Track frame offsets:
# 150
# 73801
# 147914
# 216235
#
# Disc length: 3877 seconds
#
#
# Revision: 0
# Processed by: cddbd v1.5.2PL0 Copyright (c) Steve Scherf et al.
# Submitted via: FreeRIP 2.945 
#
DISCID=3f0f2304
DTITLE=Dream Works - Ab durch die Hecke 
DYEAR=2006
DGENRE=Hörspiel
TTITLE0=Ab durch die Hecke 1
TTITLE1=Ab durch die Hecke 2
TTITLE2=Ab durch die Hecke 3
TTITLE3=Ab durch die Hecke 4
EXTD=
EXTT0=
EXTT1=
EXTT2=
EXTT3=
PLAYORDER=
